<?xml version="1.0" encoding="UTF-8" standalone="no"?>
<!-- Creator: CorelDRAW 2017 -->

<svg
   xmlns:dc="http://purl.org/dc/elements/1.1/"
   xmlns:cc="http://creativecommons.org/ns#"
   xmlns:rdf="http://www.w3.org/1999/02/22-rdf-syntax-ns#"
   xmlns:svg="http://www.w3.org/2000/svg"
   xmlns="http://www.w3.org/2000/svg"
   xmlns:sodipodi="http://sodipodi.sourceforge.net/DTD/sodipodi-0.dtd"
   xmlns:inkscape="http://www.inkscape.org/namespaces/inkscape"
   xml:space="preserve"
   width="58.382599mm"
   height="13.158mm"
   version="1.1"
   style="clip-rule:evenodd;fill-rule:evenodd;image-rendering:optimizeQuality;shape-rendering:geometricPrecision;text-rendering:geometricPrecision"
   viewBox="0 0 5838.2599 1315.8"
   id="svg50"
   sodipodi:docname="logo.svg"
   inkscape:version="0.92.2 (5c3e80d, 2017-08-06)"><metadata
     id="metadata54"><rdf:RDF><cc:Work
         rdf:about=""><dc:format>image/svg+xml</dc:format><dc:type
           rdf:resource="http://purl.org/dc/dcmitype/StillImage" /><dc:title></dc:title></cc:Work></rdf:RDF></metadata><sodipodi:namedview
     pagecolor="#ffffff"
     bordercolor="#666666"
     borderopacity="1"
     objecttolerance="10"
     gridtolerance="10"
     guidetolerance="10"
     inkscape:pageopacity="0"
     inkscape:pageshadow="2"
     inkscape:window-width="1920"
     inkscape:window-height="1017"
     id="namedview52"
     showgrid="false"
     fit-margin-top="0"
     fit-margin-left="0"
     fit-margin-right="0"
     fit-margin-bottom="0"
     inkscape:zoom="0.75544332"
     inkscape:cx="201.39288"
     inkscape:cy="-17.798553"
     inkscape:window-x="-8"
     inkscape:window-y="-8"
     inkscape:window-maximized="1"
     inkscape:current-layer="svg50" /><defs
     id="defs35"><style
       type="text/css"
       id="style33"><![CDATA[
    .fil0 {fill:#917B5A}
   ]]></style></defs><g
     id="Слой_x0020_1"
     transform="translate(-5171.48,-13063.28)"><metadata
       id="CorelCorpID_0Corel-Layer" /><g
       id="_1072676843216"><path
         class="fil0"
         d="m 6818.91,14072.16 c 0,105.83 -77.61,179.91 -232.82,229.3 -134.05,42.33 -268.1,52.91 -405.68,31.75 -45.86,-7.06 -67.03,-31.75 -67.03,-67.03 0,-31.75 49.39,-102.3 148.16,-211.66 77.61,-88.19 148.16,-158.74 211.66,-211.66 169.33,-148.16 250.46,-243.41 250.46,-285.74 0,-21.17 -7.06,-31.75 -21.17,-31.75 -42.33,0 -105.83,17.64 -194.02,49.39 -70.55,24.69 -130.52,52.91 -183.44,81.14 -116.41,59.97 -268.1,165.8 -451.54,317.49 -17.64,14.11 -67.03,59.97 -151.69,137.58 -63.5,56.44 -98.77,84.66 -105.83,84.66 -24.69,0 -35.28,-14.11 -35.28,-38.8 0,-17.64 77.61,-98.77 232.82,-239.88 77.61,-67.03 190.49,-162.27 331.6,-292.79 95.25,-91.72 194.02,-183.44 289.27,-278.68 109.36,-102.3 162.27,-162.27 162.27,-179.91 0,-17.64 -7.06,-24.69 -21.17,-24.69 -17.64,0 -102.3,45.86 -250.46,137.58 -215.19,134.05 -352.76,218.71 -409.21,250.46 -141.11,81.14 -285.74,165.8 -426.84,257.52 -176.38,112.88 -271.63,169.33 -285.74,169.33 -21.17,0 -31.75,-7.06 -31.75,-17.64 0,-31.75 239.88,-194.02 719.64,-479.76 141.11,-84.66 282.21,-172.85 426.84,-261.04 155.22,-88.19 253.99,-134.05 299.85,-134.05 17.64,0 35.28,7.06 49.39,17.64 14.11,10.58 21.17,24.69 21.17,42.33 0,45.86 -38.8,112.88 -119.94,208.13 -59.97,67.03 -116.41,130.52 -176.38,197.55 42.33,-14.11 102.3,-31.75 186.96,-52.91 95.25,-24.69 158.74,-35.28 186.96,-35.28 38.8,0 56.44,28.22 56.44,88.19 0,70.55 -98.77,201.08 -292.79,384.51 -194.02,183.44 -292.79,285.74 -292.79,306.9 0,10.58 10.58,14.11 28.22,14.11 52.91,0 141.11,-28.22 264.57,-84.66 151.69,-67.03 239.88,-102.3 261.04,-102.3 17.67,3.5 28.25,10.56 28.25,24.67 z"
         id="path38"
         inkscape:connector-curvature="0"
         style="fill:#917b5a" /><path
         class="fil0"
         d="m 7563.25,14086.27 c 0,17.64 -28.22,35.28 -84.66,49.39 -56.44,14.11 -116.41,21.17 -179.91,21.17 -42.33,0 -84.66,-10.58 -123.47,-28.22 -88.19,88.19 -148.16,144.63 -179.91,169.33 -70.55,52.91 -137.58,81.14 -208.13,81.14 -21.17,0 -42.33,-10.58 -56.44,-28.22 -17.64,-21.17 -24.69,-38.8 -24.69,-52.91 0,-38.8 17.64,-88.19 56.44,-144.63 35.28,-56.44 84.66,-109.36 141.11,-162.27 45.86,-38.8 105.83,-74.08 172.85,-98.77 52.91,-21.17 95.25,-31.75 119.94,-31.75 14.11,0 31.75,10.58 49.39,28.22 17.64,17.64 28.22,38.8 28.22,63.5 0,24.69 -14.11,67.03 -45.86,123.47 17.64,7.06 45.86,17.64 84.66,24.69 31.75,0 74.08,-3.53 126.99,-10.58 52.91,-7.06 84.66,-10.58 88.19,-10.58 24.69,-7.09 35.28,-3.57 35.28,7.02 z m -483.29,21.16 c 3.53,-17.64 3.53,-35.28 0,-56.44 -7.06,-28.22 -14.11,-45.86 -28.22,-56.44 -56.44,24.69 -102.3,52.91 -137.58,91.72 -84.66,84.66 -123.47,148.16 -123.47,190.49 0,17.64 7.06,28.22 17.64,28.22 56.44,-3.53 148.16,-67.02 271.63,-197.55 z"
         id="path40"
         inkscape:connector-curvature="0"
         style="fill:#917b5a" /><path
         class="fil0"
         d="m 8931.97,14125.07 c 0,17.64 -63.5,52.91 -190.49,109.36 -155.22,70.55 -264.57,102.3 -331.6,102.3 -42.33,0 -81.14,-7.06 -109.36,-21.17 -28.22,-14.11 -42.33,-31.75 -42.33,-49.39 0,-14.11 7.06,-28.22 17.64,-49.39 10.58,-17.64 21.17,-35.28 31.75,-52.91 -52.91,28.22 -123.47,56.44 -204.6,88.19 -81.14,31.75 -130.52,49.39 -144.63,49.39 -38.8,0 -56.44,-10.58 -56.44,-28.22 0,-14.11 10.58,-38.8 31.75,-70.55 -70.55,42.33 -137.58,77.61 -197.55,98.77 -105.83,38.8 -186.96,59.97 -236.35,59.97 -56.44,0 -84.66,-28.22 -84.66,-88.19 0,-31.75 14.11,-74.08 45.86,-123.47 28.22,-49.39 52.91,-70.55 67.03,-70.55 28.22,0 45.86,14.11 45.86,35.28 0,24.69 -7.06,49.39 -24.69,77.61 -17.64,28.22 -24.69,45.86 -24.69,52.91 0,17.64 17.64,28.22 52.91,28.22 17.64,0 59.97,-10.58 126.99,-35.28 67.03,-24.69 123.47,-49.39 176.38,-74.08 119.94,-59.97 232.82,-137.58 335.13,-225.77 91.72,-81.14 148.16,-123.47 165.8,-123.47 17.64,0 28.22,14.11 28.22,42.33 0,10.58 -14.11,31.75 -45.86,56.44 -21.17,17.64 -45.86,38.8 -67.03,56.44 -52.91,49.39 -137.58,123.47 -250.46,222.24 109.36,-31.75 239.88,-91.72 391.57,-186.96 31.75,-21.17 67.03,-42.33 98.77,-63.5 45.86,-28.22 77.61,-45.86 91.72,-45.86 21.17,0 28.22,14.11 28.22,38.8 0,21.17 -52.91,70.55 -162.27,151.69 -28.22,21.17 -63.5,49.39 -102.3,88.19 -38.8,38.8 -56.44,63.5 -56.44,70.55 0,17.64 24.69,28.22 70.55,28.22 70.55,0 169.33,-28.22 292.79,-84.66 10.58,-3.53 49.39,-24.69 116.41,-56.44 45.86,-24.69 74.08,-35.28 81.14,-35.28 24.67,0.02 35.26,10.6 35.26,28.24 z"
         id="path42"
         inkscape:connector-curvature="0"
         style="fill:#917b5a" /><path
         class="fil0"
         d="m 9877.37,14248.54 c 0,14.11 -56.44,35.28 -172.85,63.5 -116.41,31.75 -201.08,45.86 -257.52,45.86 -59.97,0 -112.88,-10.58 -158.74,-28.22 -45.86,-17.64 -67.03,-38.8 -67.03,-56.44 0,-42.33 24.69,-91.72 70.55,-148.16 -24.69,-17.64 -52.91,-24.69 -88.19,-24.69 -63.5,0 -134.05,21.17 -211.66,63.5 -24.69,14.11 -52.91,42.33 -95.25,88.19 -31.75,38.8 -56.44,59.97 -81.14,59.97 -28.22,0 -42.33,-14.11 -42.33,-38.8 0,-31.75 88.19,-130.52 268.1,-296.32 42.33,-38.8 91.72,-81.14 151.69,-119.94 59.97,-38.8 95.25,-59.97 105.83,-59.97 7.06,0 14.11,3.53 24.69,14.11 7.06,10.58 10.58,17.64 10.58,28.22 0,3.53 -35.28,31.75 -109.36,84.66 -52.91,38.8 -95.25,74.08 -119.94,112.88 10.58,0 35.28,0 77.61,-7.06 42.33,-7.06 70.55,-7.06 91.72,-7.06 38.8,3.53 67.03,17.64 88.19,38.8 28.22,-24.69 74.08,-59.97 134.05,-105.83 81.14,-56.44 130.52,-84.66 155.22,-84.66 14.11,0 24.69,3.53 35.28,14.11 10.58,10.58 17.64,21.17 17.64,31.75 0,31.75 -42.33,74.08 -123.47,130.52 -63.5,42.33 -119.94,77.61 -169.33,98.77 -59.97,56.44 -91.72,91.72 -91.72,105.83 0,14.11 14.11,24.69 38.8,35.28 24.69,10.58 56.44,14.11 91.72,14.11 67.03,0 148.16,-14.11 246.93,-38.8 98.77,-24.69 144.63,-38.8 141.11,-38.8 24.71,-3.53 38.82,7.05 38.82,24.69 z"
         id="path44"
         inkscape:connector-curvature="0"
         style="fill:#917b5a" /><path
         class="fil0"
         d="m 11009.74,14096.85 c 0,21.17 -63.5,35.28 -194.02,42.33 h -84.66 c -42.33,35.28 -84.66,74.08 -126.99,109.36 -59.97,45.86 -134.05,67.03 -218.71,67.03 -31.75,0 -67.03,-21.17 -102.3,-67.03 -35.28,14.11 -88.19,35.28 -169.33,59.97 -45.86,10.58 -116.41,24.69 -211.66,42.33 -7.06,3.53 -24.69,7.06 -45.86,14.11 -17.64,7.06 -28.22,10.58 -35.28,10.58 -21.17,0 -31.75,-14.11 -31.75,-38.8 0,-17.64 21.17,-49.39 67.03,-88.19 42.33,-35.28 84.66,-74.08 130.52,-109.36 112.88,-98.77 172.85,-148.16 186.96,-148.16 21.17,0 31.75,10.58 31.75,28.22 0,14.11 -17.64,31.75 -49.39,59.97 -31.75,28.22 -63.5,52.91 -91.72,77.61 -63.5,59.97 -116.41,105.83 -155.22,137.58 56.44,-7.06 109.36,-17.64 162.27,-31.75 63.5,-14.11 130.52,-42.33 208.13,-77.61 21.17,-24.69 59.97,-63.5 123.47,-119.94 137.58,-109.36 250.46,-162.27 338.65,-162.27 17.64,0 31.75,7.06 45.86,17.64 14.11,14.11 21.17,28.22 21.17,45.86 0,35.28 -10.58,67.03 -28.22,98.77 14.11,3.53 31.75,7.06 49.39,7.06 21.17,0 49.39,-3.53 81.14,-10.58 31.75,-7.06 49.39,-10.58 56.44,-10.58 31.75,-0.01 42.33,17.63 42.33,45.85 z m -370.4,28.22 c -31.75,-10.58 -49.39,-21.17 -52.91,-28.22 l -28.22,-52.91 c -28.22,17.64 -63.5,45.86 -105.83,81.14 -49.39,45.86 -74.08,77.61 -74.08,95.25 0,10.58 17.64,21.17 52.91,28.22 24.69,7.06 63.5,-7.06 116.41,-38.8 45.86,-28.24 77.61,-56.46 91.72,-84.68 z"
         id="path46"
         inkscape:connector-curvature="0"
         style="fill:#917b5a" /></g></g></svg>